# xmcd CD database file
#
# Track frame offsets:
#	150
#	32272
#	52335
#	78454
#	100642
#	122467
#	154519
#	174856
#	191460
#	214324
#	235929
#	259355
#
# Disc length: 3706 seconds
#
# Revision: 3
# Processed by: cddbd v1.4PL0 Copyright (c) Steve Scherf et al.
# Submitted via: CDex 1.50beta10
#
DISCID=950e780c
DTITLE=Chillout room - Cool gooves
DYEAR=2001
DGENRE=New Age
TTITLE0=So Damn beautiful -  Polaroid
TTITLE1=October Weep - Noisy Crayons
TTITLE2=Around The World - The Love Theme
TTITLE3=Sunset - Section Three
TTITLE4=Follow Me - Tears Of A Prophet
TTITLE5=Get Up - Dugdealer
TTITLE6=On The 6th Day... Let It Be So - One Mind's Eye
TTITLE7=Smokers Anthem - Smokers Blend 3000 feat. Jodie
TTITLE8=River Runs Deep - Lemonade Speedster
TTITLE9=Lullabye - My Ghost
TTITLE10=Vision Blinding Eye - THe Love Theme feat. Moses Isaya
TTITLE11=Thinkin' About The Way - Shawn Christoper
EXTD=YEAR: 2001
EXTT0=
EXTT1=
EXTT2=
EXTT3=
EXTT4=
EXTT5=
EXTT6=
EXTT7=
EXTT8=
EXTT9=
EXTT10=
EXTT11=
PLAYORDER=
